# AST/ASF file generated using VICON BodyLanguage
# -----------------------------------------------
:version 1.10
:name VICON
:units
  mass 1.0
  length 0.45
  angle deg
:documentation
   .ast/.asf automatically generated from VICON data using
   VICON BodyBuilder and BodyLanguage model FoxedUp or BRILLIANT.MOD
:root
   order TX TY TZ RX RY RZ
   axis XYZ
   position 0 0 0  
   orientation 0 -0 0 
:bonedata
  begin
     id 1 
     name lhipjoint
     direction 0.500677 -0.737119 0.453848 
     length 2.34727 
     axis 0 -0 0  XYZ
  end
  begin
     id 2 
     name lfemur
     direction 0.34202 -0.939693 0  
     length 7.53653  
     axis 0 -0 20  XYZ
    dof rx ry rz
    limits (-160.0 20.0)
           (-70.0 70.0)
           (-60.0 70.0)
  end
  begin
     id 3 
     name ltibia
     direction 0.34202 -0.939693 0   
     length 6.85572   
     axis 0 -0 20   XYZ
    dof rx
    limits (-10.0 170.0)
  end
  begin
     id 4 
     name lfoot
     direction 0.155313 -0.426718 0.890949   
     length 2.18324   
     axis -90 -1.13533e-015 20   XYZ
    dof rx rz
    limits (-45.0 90.0)
           (-70.0 20.0)
  end
  begin
     id 5 
     name ltoes
     direction 1.53474e-011 -4.21647e-011 1   
     length 1.06748   
     axis -90 -1.13533e-015 20   XYZ
    dof rx
    limits (-90.0 20.0)
  end
  begin
     id 6 
     name rhipjoint
     direction -0.632471 -0.659587 0.406111   
     length 2.62319  
     axis 0 -0 0  XYZ 
  end
  begin
     id 7 
     name rfemur
     direction -0.34202 -0.939693 0   
     length 7.21735   
     axis 0 -0 -20   XYZ
    dof rx ry rz
    limits (-160.0 20.0)
           (-70.0 70.0)
           (-70.0 60.0)
  end
  begin
     id 8 
     name rtibia
     direction -0.34202 -0.939693 0   
     length 7.02558   
     axis 0 -0 -20   XYZ
    dof rx
    limits (-10.0 170.0)
 end
 begin
     id 9 
     name rfoot
     direction -0.16057 -0.441164 0.882945   
     length 2.10014  
     axis -90 1.13533e-015 -20   XYZ
    dof rx rz
    limits (-45.0 90.0)
           (-20.0 70.0)
  end
  begin
     id 10 
     name rtoes
     direction -1.53553e-011 -4.2192e-011 1   
     length 1.02554   
     axis -90 1.13533e-015 -20   XYZ
    dof rx
    limits (-90.0 20.0)
  end
  begin
     id 11 
     name lowerback
     direction 0.0401429 0.998861 -0.0258085   
     length 1.80848   
     axis 0 -0 0   XYZ
    dof rx ry rz
    limits (-20.0 45.0)
           (-30.0 30.0)
           (-30.0 30.0)
  end
  begin
     id 12 
     name upperback
     direction -0.0130978 0.999914 -0.000352645   
     length 1.8116   
     axis 0 -0 0   XYZ
    dof rx ry rz
    limits (-20.0 45.0)
           (-30.0 30.0)
           (-30.0 30.0)
  end
  begin
     id 13 
     name thorax
     direction -0.0300198 0.999453 0.0138573   
     length 1.81778   
     axis 0 -0 0   XYZ
    dof rx ry rz
    limits (-20.0 45.0)
           (-30.0 30.0)
           (-30.0 30.0)
  end
  begin
     id 14 
     name lowerneck
     direction -0.0401726 0.999191 -0.00173647   
     length 2.10594   
     axis 0 -0 0   XYZ
    dof rx ry rz
    limits (-20.0 45.0)
           (-30.0 30.0)
           (-30.0 30.0)
  end
  begin
     id 15 
     name upperneck
     direction 0.0119835 0.998501 0.0534085   
     length 2.07325   
     axis 0 -0 0   XYZ
    dof rx ry rz
    limits (-20.0 45.0)
           (-30.0 30.0)
           (-30.0 30.0)
  end
  begin
     id 16
     name head
     direction 0.00628309 0.999826 0.0175921  
     length 2.15096  
     axis 0 -0 0   XYZ
    dof rx ry rz
    limits (-20.0 45.0)
           (-30.0 30.0)
           (-30.0 30.0)
  end
  begin
     id 17 
     name lclavicle
     direction 0.895501 0.429681 -0.115981  
     length 4.18092  
     axis 0 -0 0   XYZ
    dof ry rz
    limits (-20.0 10.0)
           (0.0 20.0)
  end
  begin
     id 18 
     name lhumerus
     direction 1 -4.48961e-011 -3.38433e-028   
     length 5.77237   
     axis 180 -30 -90   XYZ
    dof rx ry rz
    limits (-60.0 90.0)
           (-90.0 90.0)
           (-90.0 90.0)
  end
  begin
     id 19
     name lradius
     direction 1 -4.4901e-011 1.11983e-026   
     length 2.91878   
     axis 180 -30 -90   XYZ
    dof rx
    limits (-10.0 170.0)
  end
  begin
     id 20
     name lwrist
     direction 1 -4.48934e-011 1.88176e-026   
     length 1.45939   
     axis -1.23311e-014 90 90   XYZ
    dof ry
    limits (-180.0 0.0)
 end
  begin
     id 21 
     name lhand
     direction 1 -4.4895e-011 3.76352e-026   
     length 1.06566   
     axis -2.40147e-014 90 90   XYZ
    dof rx rz
    limits (-90.0 90.0)
           (-45.0 45.0)
  end
  begin
     id 22 
     name lfingers
     direction 1 -4.49005e-011 7.52705e-026   
     length 0.859162   
     axis -4.80295e-014 90 90   XYZ
    dof rx
    limits (0.0 90.0)
  end
  begin
     id 23
     name lthumb
     direction 0.707107 -6.34885e-011 0.707107   
     length 1.23359   
     axis -90 45 -9.86935e-015   XYZ
    dof rx rz
    limits (-45.0 45.0)
           (-45.0 45.0)
  end
  begin
     id 24 
     name rclavicle
     direction -0.91006 0.40451 -0.0903492   
     length 4.23293  
     axis 0 -0 0   XYZ 
    dof ry rz
    limits (-10.0 20.0)
           (-20.0 0.0)
  end
  begin
     id 25 
     name rhumerus
     direction -1 -4.4897e-011 1.7415e-027  
     length 5.49854   
     axis 180 30 90   XYZ
    dof rx ry rz
    limits (-90.0 60.0)
           (-90.0 90.0)
           (-90.0 90.0)
  end
  begin
     id 26 
     name rradius
     direction -1 -4.48963e-011 1.21259e-026   
     length 3.1186   
     axis 180 30 90   XYZ
    dof rx
    limits (-10.0 170.0)
  end
  begin
     id 27 
     name rwrist
     direction -1 -4.48967e-011 1.88176e-026   
     length 1.5593   
     axis -1.23311e-014 -90 -90   XYZ
    dof ry
    limits (-180.0 0.0)
  end
  begin
     id 28
     name rhand
     direction -1 -4.4895e-011 3.76352e-026   
     length 0.71207   
     axis -2.40147e-014 -90 -90   XYZ
    dof rx rz
    limits (-90.0 90.0)
           (-45.0 45.0)
  end
  begin
     id 29
     name rfingers
     direction -1 -4.49005e-011 7.52705e-026   
     length 0.574089   
     axis -4.80295e-014 -90 -90   XYZ
    dof rx
    limits (0.0 90.0)
  end
  begin
     id 30
     name rthumb
     direction -0.707107 -6.34982e-011 0.707107   
     length 0.824281   
     axis -90 -45 9.86935e-015   XYZ
    dof rx rz
    limits (-45.0 45.0)
           (-45.0 45.0)
  end
:hierarchy
  begin
    root lhipjoint rhipjoint lowerback
    lhipjoint lfemur
    lfemur ltibia
    ltibia lfoot
    lfoot ltoes
    rhipjoint rfemur
    rfemur rtibia
    rtibia rfoot
    rfoot rtoes
    lowerback upperback
    upperback thorax
    thorax lowerneck lclavicle rclavicle
    lowerneck upperneck
    upperneck head
    lclavicle lhumerus
    lhumerus lradius
    lradius lwrist
    lwrist lhand lthumb
    lhand lfingers
    rclavicle rhumerus
    rhumerus rradius
    rradius rwrist
    rwrist rhand rthumb
    rhand rfingers
  end

#!OML:ASF C:\ViconDB\ViconDB\414\Spring2016\042216\male.ASF
:FULLY-SPECIFIED
:DEGREES
110
root -44.7962 16.9991 13.6089 -162.697 86.6884 -163.116
lowerback -3.42601 -1.46237 4.18584
upperback -0.250772 -2.09492 -0.641515
thorax 1.48847 -1.01644 -3.1016
lowerneck -1.66989 4.33495 -2.82343
upperneck 3.25424 5.84512 0.965598
head 1.16787 2.90516 0.848779
rclavicle -2.81358e-014 -3.72721e-015
rhumerus -33.0948 -1.07449 -94.3269
rradius 30.8483
rwrist 38.9063
rhand 14.3103 -22.7072
rfingers 7.12502
rthumb 39.202 -48.1691
lclavicle -2.81358e-014 -3.72721e-015
lhumerus -38.1458 14.5984 85.4271
lradius 32.9974
lwrist -11.0742
lhand 0.301863 12.7006
lfingers 7.12502
lthumb 25.8795 40.9595
rfemur -11.2213 -0.919519 20.4286
rtibia 28.2676
rfoot -19.1465 2.71649
rtoes -5.79341
lfemur -9.28824 -3.04325 -18.4335
ltibia 27.9595
lfoot -27.8245 9.84155
ltoes -15.3098
111
root -44.7931 17.0028 13.6111 -162.508 86.7049 -162.954
lowerback -3.44276 -1.44388 4.17194
upperback -0.25858 -2.07013 -0.650448
thorax 1.49206 -1.00415 -3.1024
lowerneck -1.69438 4.37547 -2.92355
upperneck 3.34247 5.89798 1.13033
head 1.19147 2.93242 0.919446
rclavicle 1.80615e-015 -1.24737e-014
rhumerus -33.1312 -1.05453 -94.3
rradius 31.0096
rwrist 38.2649
rhand 13.347 -22.6392
rfingers 7.12502
rthumb 38.2935 -48.358
lclavicle 1.80615e-015 -1.24737e-014
lhumerus -38.257 14.8049 85.293
lradius 33.2169
lwrist -10.6566
lhand 0.495445 12.0977
lfingers 7.12502
lthumb 26.0648 40.3294
rfemur -11.2352 -0.91828 20.4395
rtibia 28.2512
rfoot -19.1336 2.71965
rtoes -5.90523
lfemur -9.32359 -3.00726 -18.4263
ltibia 27.9714
lfoot -27.8396 9.89547
ltoes -15.9769
112
root -44.791 17.0012 13.6134 -162.13 86.6999 -162.598
lowerback -3.42331 -1.43525 4.22091
upperback -0.289889 -2.05825 -0.689423
thorax 1.44676 -0.999384 -3.16838
lowerneck -1.67999 4.37709 -2.73032
upperneck 3.42812 5.90129 0.949862
head 1.22629 2.93315 0.833129
rclavicle 2.10634e-014 -5.26779e-015
rhumerus -33.2086 -1.02973 -94.3437
rradius 31.0923
rwrist 38.0822
rhand 12.4572 -22.4673
rfingers 7.12502
rthumb 37.453 -48.4132
lclavicle 2.10634e-014 -5.26779e-015
lhumerus -38.402 15.0649 85.0396
lradius 33.4627
lwrist -10.1251
lhand 0.612179 11.7868
lfingers 7.12502
lthumb 26.1766 40.002
rfemur -11.245 -0.92147 20.4777
rtibia 28.2252
rfoot -19.1338 2.70712
rtoes -5.79679
lfemur -9.3485 -3.10044 -18.3913
ltibia 27.9928
lfoot -27.8313 9.95225
ltoes -15.9104
113
root -44.7894 17.0027 13.6116 -162.025 86.664 -162.554
lowerback -3.42558 -1.41581 4.30663
upperback -0.344788 -2.03355 -0.734439
thorax 1.38898 -0.988654 -3.26099
lowerneck -1.63911 4.38217 -2.6222
upperneck 3.50319 5.90617 0.908726
head 1.24699 2.93594 0.803029
rclavicle -1.16786e-015 -2.98177e-016
rhumerus -33.4233 -0.998049 -94.3109
rradius 31.292
rwrist 37.8623
rhand 10.658 -22.1202
rfingers 7.12502
rthumb 35.7502 -48.4977
lclavicle -1.16786e-015 -2.98177e-016
lhumerus -38.5965 15.2393 84.8442
lradius 33.7486
lwrist -9.67393
lhand 0.101754 11.7867
lfingers 7.12502
lthumb 25.6878 40.0734
rfemur -11.3214 -1.02288 20.4809
rtibia 28.2238
rfoot -19.1095 2.77636
rtoes -5.98197
lfemur -9.42044 -3.22871 -18.3925
ltibia 27.9958
lfoot -27.789 10.0783
ltoes -15.481
114
root -44.7865 17.0033 13.6123 -161.807 86.6387 -162.347
lowerback -3.40905 -1.39546 4.35399
upperback -0.375959 -2.00628 -0.757803
thorax 1.34754 -0.97622 -3.30954
lowerneck -1.63245 4.41114 -2.56499
upperneck 3.61342 5.9451 0.887451
head 1.28216 2.95528 0.789628
rclavicle 2.53233e-014 4.57205e-015
rhumerus -33.4578 -1.33499 -94.1757
rradius 31.2363
rwrist 38.0333
rhand 9.87428 -21.7024
rfingers 7.12502
rthumb 35.0071 -48.2568
lclavicle 2.53233e-014 4.57205e-015
lhumerus -38.683 15.42 84.6903
lradius 33.8904
lwrist -9.34543
lhand 0.637575 11.2794
lfingers 7.12502
lthumb 26.2009 39.491
rfemur -11.3264 -1.01535 20.5053
rtibia 28.2306
rfoot -19.0918 2.73324
rtoes -6.10956
lfemur -9.43337 -3.19795 -18.3652
ltibia 28.0008
lfoot -27.7798 10.0279
ltoes -15.3601
115
root -44.7827 17.0008 13.6145 -161.919 86.6141 -162.448
lowerback -3.39556 -1.39108 4.34549
upperback -0.388762 -1.99924 -0.753854
thorax 1.32785 -0.973423 -3.29974
lowerneck -1.62515 4.44698 -2.5387
upperneck 3.70254 5.99618 0.809113
head 1.31121 2.9795 0.763424
rclavicle 1.02747e-014 5.26779e-015
rhumerus -33.4901 -1.40414 -94.1333
rradius 31.2362
rwrist 37.5572
rhand 9.61635 -21.2835
rfingers 7.12502
rthumb 34.7624 -47.8947
lclavicle 1.02747e-014 5.26779e-015
lhumerus -38.7584 15.6157 84.5776
lradius 34.003
lwrist -9.19487
lhand 0.637575 11.2794
lfingers 7.12502
lthumb 26.2009 39.491
rfemur -11.3024 -1.01757 20.5122
rtibia 28.2486
rfoot -19.1019 2.70937
rtoes -6.14784
lfemur -9.40565 -3.18656 -18.3596
ltibia 28.0022
lfoot -27.7772 10.0335
ltoes -15.4339
116
root -44.7789 17.0014 13.6174 -161.774 86.5931 -162.301
lowerback -3.41896 -1.38535 4.33999
upperback -0.379712 -1.9927 -0.751732
thorax 1.35113 -0.969469 -3.29511
lowerneck -1.63506 4.49148 -2.49395
upperneck 3.76023 6.05812 0.73615
head 1.33354 3.00956 0.73587
rclavicle -2.58979e-014 1.98785e-016
rhumerus -33.4753 -1.53635 -94.0545
rradius 31.1729
rwrist 37.2419
rhand 9.66405 -20.7023
rfingers 7.12502
rthumb 34.8076 -47.3031
lclavicle -2.58979e-014 1.98785e-016
lhumerus -38.7938 15.9393 84.3695
lradius 34.1119
lwrist -8.96655
lhand 0.637575 11.2794
lfingers 7.12502
lthumb 26.2009 39.491
rfemur -11.2813 -0.947767 20.5396
rtibia 28.2562
rfoot -19.1291 2.63647
rtoes -6.14305
lfemur -9.39467 -3.15859 -18.3294
ltibia 28.0164
lfoot -27.8439 10.0328
ltoes -16.1772
117
root -44.7746 16.9993 13.6177 -161.769 86.5508 -162.277
lowerback -3.44178 -1.38714 4.35675
upperback -0.365617 -1.99727 -0.739104
thorax 1.37791 -0.970793 -3.29265
lowerneck -1.65457 4.53786 -2.46645
upperneck 3.83841 6.12422 0.650688
head 1.36397 3.04113 0.708132
rclavicle 2.23446e-014 5.46658e-015
rhumerus -33.4752 -1.56939 -93.9882
rradius 31.0553
rwrist 36.8099
rhand 9.51625 -20.3012
rfingers 7.12502
rthumb 34.6674 -46.9343
lclavicle 2.23446e-014 5.46658e-015
lhumerus -38.8326 16.2482 84.2157
lradius 34.1905
lwrist -8.89869
lhand 0.637575 11.2794
lfingers 7.12502
lthumb 26.2009 39.491
rfemur -11.2332 -0.987322 20.5539
rtibia 28.2575
rfoot -19.1785 2.62908
rtoes -6.04401
lfemur -9.38073 -3.05953 -18.3137
ltibia 28.0409
lfoot -27.7985 9.93617
ltoes -16.2219
118
root -44.7703 16.9996 13.6178 -161.451 86.5208 -161.972
lowerback -3.50085 -1.37722 4.39147
upperback -0.354087 -1.98858 -0.720671
thorax 1.42313 -0.964942 -3.29484
lowerneck -1.69394 4.58437 -2.49052
upperneck 3.93803 6.19059 0.625431
head 1.40142 3.07297 0.708513
rclavicle -2.62862e-014 -4.67144e-015
rhumerus -33.3888 -1.94451 -93.7199
rradius 30.8968
rwrist 36.1194
rhand 9.95812 -19.4003
rfingers 7.12502
rthumb 35.0866 -45.9361
lclavicle -2.62862e-014 -4.67144e-015
lhumerus -38.8406 16.6139 84.0447
lradius 34.2386
lwrist -8.87038
lhand 0.637575 11.2794
lfingers 7.12502
lthumb 26.2009 39.491
rfemur -11.2046 -0.908852 20.5778
rtibia 28.2327
rfoot -19.1823 2.58727
rtoes -5.81908
lfemur -9.40059 -3.12068 -18.2872
ltibia 28.0869
lfoot -27.8406 10.0236
ltoes -15.7088
119
root -44.7661 17.0006 13.6178 -161.073 86.4928 -161.614
lowerback -3.57149 -1.36699 4.46481
upperback -0.345382 -1.98106 -0.731847
thorax 1.46949 -0.959399 -3.34964
lowerneck -1.73365 4.64167 -2.44264
upperneck 4.05499 6.27095 0.563924
head 1.44756 3.11202 0.686571
rclavicle 2.19968e-014 2.5842e-015
rhumerus -33.3871 -1.97266 -93.7281
rradius 30.7673
rwrist 36.4909
rhand 9.99176 -19.4466
rfingers 7.12502
rthumb 35.1185 -45.9749
lclavicle 2.19968e-014 2.5842e-015
lhumerus -38.8447 16.9549 83.8284
lradius 34.2687
lwrist -8.72333
lhand 0.637575 11.2794
lfingers 7.12502
lthumb 26.2009 39.491
rfemur -11.2184 -1.08806 20.612
rtibia 28.2157
rfoot -19.2309 2.70107
rtoes -5.72469
lfemur -9.42293 -3.16762 -18.2625
ltibia 28.1235
lfoot -27.8633 10.0635
ltoes -15.748
120
root -44.7619 16.9999 13.6208 -160.827 86.4952 -161.328
lowerback -3.58586 -1.35458 4.46082
upperback -0.319567 -1.96575 -0.730861
thorax 1.50571 -0.95048 -3.34669
lowerneck -1.73719 4.68759 -2.3412
upperneck 4.12069 6.33622 0.424347
head 1.47559 3.14324 0.629463
rclavicle 3.98501e-015 4.47266e-015
rhumerus -33.3416 -2.15078 -93.6351
rradius 30.5242
rwrist 37.0595
rhand 10.2482 -19.1094
rfingers 7.12502
rthumb 35.3617 -45.5802
lclavicle 3.98501e-015 4.47266e-015
lhumerus -38.8899 17.205 83.6635
lradius 34.3482
lwrist -8.5837
lhand 0.637575 11.2794
lfingers 7.12502
lthumb 26.2009 39.491
rfemur -11.134 -1.04928 20.6426
rtibia 28.1834
rfoot -19.2183 2.65705
rtoes -5.94871
lfemur -9.37053 -3.18257 -18.2336
ltibia 28.1597
lfoot -27.9365 10.0494
ltoes -15.6813
121
root -44.7589 16.9987 13.6215 -160.295 86.492 -160.8
lowerback -3.62446 -1.33939 4.49448
upperback -0.304421 -1.94942 -0.706216
thorax 1.54417 -0.940904 -3.34093
lowerneck -1.83285 4.72371 -2.24288
upperneck 4.25417 6.39449 0.22771
head 1.54346 3.16917 0.559646
rclavicle 1.29396e-014 9.24349e-015
rhumerus -33.3173 -2.15878 -93.5435
rradius 30.3543
rwrist 37.0866
rhand 10.3402 -19.1213
rfingers 7.12502
rthumb 35.4489 -45.5713
lclavicle 1.29396e-014 9.24349e-015
lhumerus -38.8289 17.6023 83.4683
lradius 34.3215
lwrist -8.39049
lhand 0.637575 11.2794
lfingers 7.12502
lthumb 26.2009 39.491
rfemur -11.1098 -0.799869 20.6893
rtibia 28.1685
rfoot -19.1888 2.42178
rtoes -5.95864
lfemur -9.36763 -3.18641 -18.1979
ltibia 28.1805
lfoot -27.9408 10.0555
ltoes -16.1179
